<svg xmlns="http://www.w3.org/2000/svg" width="500" height="500" x="0px" y="0px" style="enable-background:new 0 0 100 100;fill:#000000" viewBox="0 0 100 100">
    <path d="M87.215,56.71C88.35,54.555,89,52.105,89,49.5c0-6.621-4.159-12.257-10.001-14.478  C78.999,35.015,79,35.008,79,35c0-11.598-9.402-21-21-21c-9.784,0-17.981,6.701-20.313,15.757C36.211,29.272,34.638,29,33,29  c-7.692,0-14.023,5.793-14.89,13.252C12.906,43.353,9,47.969,9,53.5C9,59.851,14.149,65,20.5,65c0.177,0,0.352-0.012,0.526-0.022  C21.022,65.153,21,65.324,21,65.5C21,76.822,30.178,86,41.5,86c6.437,0,12.175-2.972,15.934-7.614C59.612,80.611,62.64,82,66,82  c4.65,0,8.674-2.65,10.666-6.518C77.718,75.817,78.837,76,80,76c6.075,0,11-4.925,11-11C91,61.689,89.53,58.727,87.215,56.71z" style="fill:#C7EDE6"/>
    <g>
        <path d="M21.5,46h-10c-0.276,0-0.5-0.224-0.5-0.5s0.224-0.5,0.5-0.5h10c0.276,0,0.5,0.224,0.5,0.5   S21.777,46,21.5,46z" style="fill:#FFFFFF"/>
        <path d="M24.5,46h-1c-0.276,0-0.5-0.224-0.5-0.5s0.224-0.5,0.5-0.5h1c0.276,0,0.5,0.224,0.5,0.5   S24.777,46,24.5,46z" style="fill:#FFFFFF"/>
        <path d="M29.491,48H20.5c-0.276,0-0.5-0.224-0.5-0.5s0.224-0.5,0.5-0.5h8.991c0.276,0,0.5,0.224,0.5,0.5   S29.767,48,29.491,48z" style="fill:#FFFFFF"/>
        <path d="M18.5,48h-1c-0.276,0-0.5-0.224-0.5-0.5s0.224-0.5,0.5-0.5h1c0.276,0,0.5,0.224,0.5,0.5   S18.777,48,18.5,48z" style="fill:#FFFFFF"/>
        <path d="M15.5,48h-2c-0.276,0-0.5-0.224-0.5-0.5s0.224-0.5,0.5-0.5h2c0.276,0,0.5,0.224,0.5,0.5   S15.777,48,15.5,48z" style="fill:#FFFFFF"/>
        <path d="M21.5,50h-2c-0.276,0-0.5-0.224-0.5-0.5s0.224-0.5,0.5-0.5h2c0.276,0,0.5,0.224,0.5,0.5   S21.776,50,21.5,50z" style="fill:#FFFFFF"/>
        <path d="M24.5,41c-0.177,0-0.823,0-1,0c-0.276,0-0.5,0.224-0.5,0.5c0,0.276,0.224,0.5,0.5,0.5   c0.177,0,0.823,0,1,0c0.276,0,0.5-0.224,0.5-0.5C25,41.224,24.776,41,24.5,41z" style="fill:#FFFFFF"/>
        <path d="M24.5,43c-0.177,0-4.823,0-5,0c-0.276,0-0.5,0.224-0.5,0.5c0,0.276,0.224,0.5,0.5,0.5   c0.177,0,4.823,0,5,0c0.276,0,0.5-0.224,0.5-0.5C25,43.224,24.776,43,24.5,43z" style="fill:#FFFFFF"/>
        <path d="M29.5,45c-0.177,0-2.823,0-3,0c-0.276,0-0.5,0.224-0.5,0.5c0,0.276,0.224,0.5,0.5,0.5   c0.177,0,2.823,0,3,0c0.276,0,0.5-0.224,0.5-0.5C30,45.224,29.776,45,29.5,45z" style="fill:#FFFFFF"/>
    </g>
    <g>
        <path d="M37,70c0,0,2.067-0.5,4-0.5s3.5-1.567,3.5-3.5c0-1.781-1.335-3.234-3.055-3.455   C41.473,62.366,41.5,62.187,41.5,62c0-1.933-1.567-3.5-3.5-3.5c-1.032,0-1.95,0.455-2.59,1.165   c-0.384-1.808-1.987-3.165-3.91-3.165c-2.209,0-4,1.791-4,4c0,0.191,0.03,0.374,0.056,0.558C27.128,60.714,26.592,60.5,26,60.5   c-1.228,0-2.245,0.887-2.455,2.055C23.366,62.527,23.187,62.5,23,62.5c-1.933,0-3.5,1.567-3.5,3.5s1.567,3.5,3.5,3.5s5,0.5,5,0.5   H37z" style="fill:#FDFCEF"/>
        <path d="M39.25,65C39.112,65,39,64.888,39,64.75c0-1.223,0.995-2.218,2.218-2.218   c0.034,0.009,0.737-0.001,1.244,0.136c0.133,0.036,0.212,0.173,0.176,0.306c-0.036,0.134-0.173,0.213-0.306,0.176   c-0.444-0.12-1.1-0.12-1.113-0.118c-0.948,0-1.719,0.771-1.719,1.718C39.5,64.888,39.388,65,39.25,65z" style="fill:#472B29"/>
        <circle cx="30.5" cy="69.5" r="0.5" style="fill:#472B29"/>
        <path d="M41,70h-5.5c-0.276,0-0.5-0.224-0.5-0.5s0.224-0.5,0.5-0.5H41c1.654,0,3-1.346,3-3   c0-1.496-1.125-2.768-2.618-2.959c-0.134-0.018-0.255-0.088-0.336-0.196s-0.115-0.244-0.094-0.377C40.975,62.314,41,62.16,41,62   c0-1.654-1.346-3-3-3c-0.85,0-1.638,0.355-2.219,1c-0.125,0.139-0.321,0.198-0.5,0.148c-0.182-0.049-0.321-0.195-0.36-0.379   C34.58,58.165,33.141,57,31.5,57c-1.93,0-3.5,1.57-3.5,3.5c0,0.143,0.021,0.28,0.041,0.418c0.029,0.203-0.063,0.438-0.242,0.54   c-0.179,0.102-0.396,0.118-0.556-0.01C26.878,61.155,26.449,61,26,61c-0.966,0-1.792,0.691-1.963,1.644   c-0.048,0.267-0.296,0.446-0.569,0.405C23.314,63.025,23.16,63,23,63c-1.654,0-3,1.346-3,3s1.346,3,3,3h5.5   c0.276,0,0.5,0.224,0.5,0.5S28.776,70,28.5,70H23c-2.206,0-4-1.794-4-4s1.794-4,4-4c0.059,0,0.116,0.002,0.174,0.006   C23.588,60.82,24.711,60,26,60c0.349,0,0.689,0.061,1.011,0.18C27.176,57.847,29.126,56,31.5,56c1.831,0,3.466,1.127,4.153,2.774   C36.333,58.276,37.155,58,38,58c2.206,0,4,1.794,4,4c0,0.048-0.001,0.095-0.004,0.142C43.739,62.59,45,64.169,45,66   C45,68.206,43.206,70,41,70z" style="fill:#472B29"/>
        <path d="M33.5,69c-0.159,0-0.841,0-1,0c-0.276,0-0.5,0.224-0.5,0.5c0,0.276,0.224,0.5,0.5,0.5   c0.159,0,0.841,0,1,0c0.276,0,0.5-0.224,0.5-0.5C34,69.224,33.776,69,33.5,69z" style="fill:#472B29"/>
    </g>
    <g>
        <path d="M63,30c3.308,0,6,2.692,6,6v4.5l-2.6,2.7L66,43.5V44v23c0,3.86-3.14,7-7,7H45c-3.86,0-7-3.14-7-7V44   v-0.5l-0.4-0.3L35,40.5V36c0-3.308,2.692-6,6-6H63" style="fill:#8A8AC0"/>
        <path d="M69,37v-1c0-3.308-2.692-6-6-6H41c-3.308,0-6,2.692-6,6v1H69z" style="fill:#A2A2CC"/>
        <path d="M63,30.4c3.088,0,5.6,2.512,5.6,5.6v4.32l-0.008,0.009l-2.6,2.7L65.6,43.436V44v23   c0,3.639-2.961,6.6-6.6,6.6H45c-3.639,0-6.6-2.961-6.6-6.6V44v-0.564l-0.392-0.407l-2.6-2.7L35.4,40.32V36   c0-3.088,2.512-5.6,5.6-5.6H63 M63,29H41c-3.866,0-7,3.134-7,7v4.5c0,0.315,0.148,0.611,0.4,0.8L37,44v23c0,4.418,3.582,8,8,8h14   c4.418,0,8-3.582,8-8V44l2.6-2.7c0.252-0.189,0.4-0.485,0.4-0.8V36C70,32.134,66.866,29,63,29L63,29z" style="fill:#472B29"/>
        <rect width="34" height="1.4" x="35" y="36.6" style="fill:#472B29"/>
        <path d="M61.75,34.5H35c-0.138,0-0.25-0.112-0.25-0.25S34.862,34,35,34h26.75c0.138,0,0.25,0.112,0.25,0.25   S61.888,34.5,61.75,34.5z" style="fill:#472B29"/>
        <path d="M65.75,34.5h-1.5c-0.138,0-0.25-0.112-0.25-0.25S64.112,34,64.25,34h1.5   c0.138,0,0.25,0.112,0.25,0.25S65.888,34.5,65.75,34.5z" style="fill:#472B29"/>
        <path d="M59,28c0-1.657-1.343-3-3-3h-8c-1.657,0-3,1.343-3,3v1.625h1.4V28c0-0.882,0.718-1.6,1.6-1.6h8   c0.882,0,1.6,0.718,1.6,1.6v1.625H59V28z" style="fill:#472B29"/>
        <rect width="34" height="0.5" x="35" y="40" style="fill:#472B29"/>
        <rect width="26" height="0.75" x="39" y="71" style="fill:#472B29"/>
        <g>
            <path d="M62.625,45c0-0.897-0.728-1.625-1.625-1.625S59.375,44.103,59.375,45c0,0.777,0,20.222,0,21    c0,0.897,0.728,1.625,1.625,1.625s1.625-0.728,1.625-1.625C62.625,65.222,62.625,45.777,62.625,45z" style="fill:#6869AD"/>
            <path d="M61,68c-1.103,0-2-0.897-2-2V45c0-1.103,0.897-2,2-2s2,0.897,2,2v21C63,67.103,62.103,68,61,68z     M61,43.75c-0.689,0-1.25,0.561-1.25,1.25v21c0,0.689,0.561,1.25,1.25,1.25s1.25-0.561,1.25-1.25V45    C62.25,44.311,61.689,43.75,61,43.75z" style="fill:#472B29"/>
        </g>
        <g>
            <path d="M56.625,45c0-0.897-0.728-1.625-1.625-1.625S53.375,44.103,53.375,45c0,0.777,0,20.222,0,21    c0,0.897,0.728,1.625,1.625,1.625s1.625-0.728,1.625-1.625C56.625,65.222,56.625,45.777,56.625,45z" style="fill:#6869AD"/>
            <path d="M55,68c-1.103,0-2-0.897-2-2V45c0-1.103,0.897-2,2-2s2,0.897,2,2v21C57,67.103,56.103,68,55,68z     M55,43.75c-0.689,0-1.25,0.561-1.25,1.25v21c0,0.689,0.561,1.25,1.25,1.25s1.25-0.561,1.25-1.25V45    C56.25,44.311,55.689,43.75,55,43.75z" style="fill:#472B29"/>
        </g>
        <g>
            <path d="M50.625,45c0-0.897-0.728-1.625-1.625-1.625S47.375,44.103,47.375,45c0,0.777,0,20.222,0,21    c0,0.897,0.728,1.625,1.625,1.625s1.625-0.728,1.625-1.625C50.625,65.222,50.625,45.777,50.625,45z" style="fill:#6869AD"/>
            <path d="M49,68c-1.103,0-2-0.897-2-2V45c0-1.103,0.897-2,2-2s2,0.897,2,2v21C51,67.103,50.103,68,49,68z     M49,43.75c-0.689,0-1.25,0.561-1.25,1.25v21c0,0.689,0.561,1.25,1.25,1.25s1.25-0.561,1.25-1.25V45    C50.25,44.311,49.689,43.75,49,43.75z" style="fill:#472B29"/>
        </g>
        <g>
            <path d="M44.625,45c0-0.897-0.728-1.625-1.625-1.625S41.375,44.103,41.375,45c0,0.447,0,5.934,0,11.625H41    v7.75h0.375c0,0,0,1.515,0,1.625c0,0.897,0.728,1.625,1.625,1.625s1.625-0.728,1.625-1.625C44.625,65.222,44.625,45.777,44.625,45    z" style="fill:#6869AD"/>
            <path d="M43,68c-1.103,0-2-0.897-2-2v-1.625C41,64.168,41.168,64,41.375,64s0.375,0.168,0.375,0.375V66    c0,0.689,0.561,1.25,1.25,1.25s1.25-0.561,1.25-1.25V45c0-0.689-0.561-1.25-1.25-1.25s-1.25,0.561-1.25,1.25v11.625    c0,0.207-0.168,0.375-0.375,0.375S41,56.832,41,56.625V45c0-1.103,0.897-2,2-2s2,0.897,2,2v21C45,67.103,44.103,68,43,68z" style="fill:#472B29"/>
            <path d="M41.375,60C41.168,60,41,59.832,41,59.625v-1.25C41,58.168,41.168,58,41.375,58    s0.375,0.168,0.375,0.375v1.25C41.75,59.832,41.582,60,41.375,60z" style="fill:#472B29"/>
        </g>
        <path d="M38,54.6h-1c-0.882,0-1.6-0.718-1.6-1.6v-4c0-0.882,0.718-1.6,1.6-1.6h1V46h-1c-1.657,0-3,1.343-3,3   v4c0,1.657,1.343,3,3,3h1V54.6z" style="fill:#472B29"/>
        <path d="M66,47.4h1c0.882,0,1.6,0.718,1.6,1.6v4c0,0.882-0.718,1.6-1.6,1.6h-1V56h1c1.657,0,3-1.343,3-3v-4   c0-1.657-1.343-3-3-3h-1V47.4z" style="fill:#472B29"/>
    </g>
    <g>
        <path d="M70,77h7l3-0.5c2.485,0,4.5-2.015,4.5-4.5c0-2.333-1.782-4.229-4.055-4.455   C80.467,67.364,80.5,67.187,80.5,67c0-2.485-2.015-4.5-4.5-4.5c-1.438,0-2.703,0.686-3.527,1.736   C72.333,61.6,70.171,59.5,67.5,59.5c-2.761,0-5,2.239-5,5c0,0.446,0.077,0.87,0.187,1.282C62.045,65.005,61.086,64.5,60,64.5   c-1.781,0-3.234,1.335-3.455,3.055C56.364,67.533,56.187,67.5,56,67.5c-2.485,0-4.5,2.015-4.5,4.5s2.015,4.5,4.5,4.5s9.5,0,9.5,0   L70,77z" style="fill:#FDFCEF"/>
        <path d="M67.5,59c-3.033,0-5.5,2.467-5.5,5.5c0,0.016,0,0.031,0,0.047C61.398,64.192,60.71,64,60,64   c-1.831,0-3.411,1.261-3.858,3.005C56.095,67.002,56.048,67,56,67c-2.757,0-5,2.243-5,5s2.243,5,5,5h15.5   c0.276,0,0.5-0.224,0.5-0.5S71.776,76,71.5,76H56c-2.206,0-4-1.794-4-4s1.794-4,4-4c0.117,0,0.23,0.017,0.343,0.032l0.141,0.019   c0.021,0.003,0.041,0.004,0.062,0.004c0.246,0,0.462-0.185,0.495-0.437C57.232,66.125,58.504,65,60,65   c0.885,0,1.723,0.401,2.301,1.1c0.098,0.118,0.241,0.182,0.386,0.182c0.078,0,0.156-0.018,0.228-0.056   c0.209-0.107,0.314-0.346,0.254-0.573C63.054,65.218,63,64.852,63,64.5c0-2.481,2.019-4.5,4.5-4.5c2.381,0,4.347,1.872,4.474,4.263   c0.011,0.208,0.15,0.387,0.349,0.45c0.05,0.016,0.101,0.024,0.152,0.024c0.15,0,0.296-0.069,0.392-0.192   C73.638,63.563,74.779,63,76,63c2.206,0,4,1.794,4,4c0,0.117-0.017,0.23-0.032,0.343l-0.019,0.141   c-0.016,0.134,0.022,0.268,0.106,0.373c0.084,0.105,0.207,0.172,0.34,0.185C82.451,68.247,84,69.949,84,72c0,2.206-1.794,4-4,4   h-5.5c-0.276,0-0.5,0.224-0.5,0.5s0.224,0.5,0.5,0.5H80c2.757,0,5-2.243,5-5c0-2.397-1.689-4.413-4.003-4.877   C80.999,67.082,81,67.041,81,67c0-2.757-2.243-5-5-5c-1.176,0-2.293,0.416-3.183,1.164C72.219,60.76,70.055,59,67.5,59L67.5,59z" style="fill:#472B29"/>
        <path d="M66,66c-1.403,0-2.609,0.999-2.913,2.341C62.72,68.119,62.301,68,61.875,68   c-1.202,0-2.198,0.897-2.353,2.068C59.319,70.022,59.126,70,58.937,70c-1.529,0-2.811,1.2-2.918,2.732   C56.01,72.87,56.114,72.99,56.251,73c0.006,0,0.012,0,0.018,0c0.13,0,0.24-0.101,0.249-0.232c0.089-1.271,1.151-2.268,2.419-2.268   c0.229,0,0.47,0.042,0.738,0.127c0.022,0.007,0.045,0.01,0.067,0.01c0.055,0,0.11-0.02,0.156-0.054   C59.962,70.537,60,70.455,60,70.375c0-1.034,0.841-1.875,1.875-1.875c0.447,0,0.885,0.168,1.231,0.473   c0.047,0.041,0.106,0.063,0.165,0.063c0.032,0,0.063-0.006,0.093-0.019c0.088-0.035,0.148-0.117,0.155-0.212   C63.623,67.512,64.712,66.5,66,66.5c0.208,0,0.425,0.034,0.682,0.107c0.023,0.007,0.047,0.01,0.07,0.01   c0.109,0,0.207-0.073,0.239-0.182c0.038-0.133-0.039-0.271-0.172-0.309C66.517,66.04,66.256,66,66,66L66,66z" style="fill:#472B29"/>
        <path d="M79.883,67.5c-1.326,0-2.508,0.897-2.874,2.182c-0.038,0.133,0.039,0.271,0.172,0.309   C77.205,69.997,77.228,70,77.25,70c0.109,0,0.209-0.072,0.24-0.182C77.795,68.748,78.779,68,79.883,68   c0.117,0,0.23,0.014,0.342,0.029c0.012,0.002,0.023,0.003,0.035,0.003c0.121,0,0.229-0.092,0.246-0.217   c0.019-0.137-0.077-0.263-0.214-0.281C80.158,67.516,80.022,67.5,79.883,67.5L79.883,67.5z" style="fill:#472B29"/>
    </g>
    <g>
        <path d="M81.5,50h-9c-0.276,0-0.5-0.224-0.5-0.5s0.224-0.5,0.5-0.5h9c0.276,0,0.5,0.224,0.5,0.5   S81.776,50,81.5,50z" style="fill:#FFFFFF"/>
        <path d="M89.5,46h-10c-0.276,0-0.5-0.224-0.5-0.5s0.224-0.5,0.5-0.5h10c0.276,0,0.5,0.224,0.5,0.5   S89.777,46,89.5,46z" style="fill:#FFFFFF"/>
        <path d="M77.5,46h-1c-0.276,0-0.5-0.224-0.5-0.5s0.224-0.5,0.5-0.5h1c0.276,0,0.5,0.224,0.5,0.5   S77.776,46,77.5,46z" style="fill:#FFFFFF"/>
        <path d="M74.47,46H72.5c-0.276,0-0.5-0.224-0.5-0.5s0.224-0.5,0.5-0.5h1.97c0.276,0,0.5,0.224,0.5,0.5   S74.746,46,74.47,46z" style="fill:#FFFFFF"/>
        <path d="M89.5,50h-2c-0.276,0-0.5-0.224-0.5-0.5s0.224-0.5,0.5-0.5h2c0.276,0,0.5,0.224,0.5,0.5   S89.776,50,89.5,50z" style="fill:#FFFFFF"/>
        <path d="M85.47,50H83.5c-0.276,0-0.5-0.224-0.5-0.5s0.224-0.5,0.5-0.5h1.97c0.276,0,0.5,0.224,0.5,0.5   S85.746,50,85.47,50z" style="fill:#FFFFFF"/>
        <path d="M85.5,48h-9c-0.276,0-0.5-0.224-0.5-0.5s0.224-0.5,0.5-0.5h9c0.276,0,0.5,0.224,0.5,0.5   S85.776,48,85.5,48z" style="fill:#FFFFFF"/>
    </g>
</svg>
