<?xml version="1.0" encoding="UTF-8"?>
<svg xmlns="http://www.w3.org/2000/svg" xmlns:xlink="http://www.w3.org/1999/xlink" width="128px" height="128px" version="1.1" viewBox="0 0 64 64">
    <g id="surface1">
        <path d="M 9 7 L 53 7 C 54.105469 7 55 7.894531 55 9 L 55 15 C 55 16.105469 54.105469 17 53 17 L 9 17 C 7.894531 17 7 16.105469 7 15 L 7 9 C 7 7.894531 7.894531 7 9 7 Z " style="fill:#F9E3AE"/>
        <path d="M 15 55 L 47 55 C 48.105469 55 49 55.894531 49 57 C 49 58.105469 48.105469 59 47 59 L 15 59 C 13.894531 59 13 58.105469 13 57 C 13 55.894531 13.894531 55 15 55 Z " style="fill:#F9E3AE"/>
        <path d="M 47 55 L 15 55 L 10 17 L 52 17 Z " style="fill:#C2CDE7"/>
        <path d="M 25 55 L 15 55 L 10 17 L 24 17 Z " style="fill:#CED8ED"/>
        <path d="M 11 17 L 11 19 C 11 20.65625 12.34375 22 14 22 L 38 22 L 37 55 L 47 55 L 52 17 Z " style="fill:#B5C4E0"/>
        <path d="M 16 10 C 15.449219 10 15 10.449219 15 11 L 15 13 C 15 13.550781 15.449219 14 16 14 C 16.550781 14 17 13.550781 17 13 L 17 11 C 17 10.449219 16.550781 10 16 10 Z " style="fill:#8D6C9F"/>
        <path d="M 11 10 C 10.449219 10 10 10.449219 10 11 L 10 13 C 10 13.550781 10.449219 14 11 14 C 11.550781 14 12 13.550781 12 13 L 12 11 C 12 10.449219 11.550781 10 11 10 Z " style="fill:#8D6C9F"/>
        <path d="M 21 10 C 20.449219 10 20 10.449219 20 11 L 20 13 C 20 13.550781 20.449219 14 21 14 C 21.550781 14 22 13.550781 22 13 L 22 11 C 22 10.449219 21.550781 10 21 10 Z " style="fill:#8D6C9F"/>
        <path d="M 26 10 C 25.449219 10 25 10.449219 25 11 L 25 13 C 25 13.550781 25.449219 14 26 14 C 26.550781 14 27 13.550781 27 13 L 27 11 C 27 10.449219 26.550781 10 26 10 Z " style="fill:#8D6C9F"/>
        <path d="M 31 10 C 30.449219 10 30 10.449219 30 11 L 30 13 C 30 13.550781 30.449219 14 31 14 C 31.550781 14 32 13.550781 32 13 L 32 11 C 32 10.449219 31.550781 10 31 10 Z " style="fill:#8D6C9F"/>
        <path d="M 36 10 C 35.449219 10 35 10.449219 35 11 L 35 13 C 35 13.550781 35.449219 14 36 14 C 36.550781 14 37 13.550781 37 13 L 37 11 C 37 10.449219 36.550781 10 36 10 Z " style="fill:#8D6C9F"/>
        <path d="M 41 10 C 40.449219 10 40 10.449219 40 11 L 40 13 C 40 13.550781 40.449219 14 41 14 C 41.550781 14 42 13.550781 42 13 L 42 11 C 42 10.449219 41.550781 10 41 10 Z " style="fill:#8D6C9F"/>
        <path d="M 46 10 C 45.449219 10 45 10.449219 45 11 L 45 13 C 45 13.550781 45.449219 14 46 14 C 46.550781 14 47 13.550781 47 13 L 47 11 C 47 10.449219 46.550781 10 46 10 Z " style="fill:#8D6C9F"/>
        <path d="M 51 10 C 50.449219 10 50 10.449219 50 11 L 50 13 C 50 13.550781 50.449219 14 51 14 C 51.550781 14 52 13.550781 52 13 L 52 11 C 52 10.449219 51.550781 10 51 10 Z " style="fill:#8D6C9F"/>
        <path d="M 53 6 L 9 6 C 7.34375 6 6 7.34375 6 9 L 6 15 C 6 16.65625 7.34375 18 9 18 C 9 18.269531 13.890625 54.21875 13.890625 54.21875 C 12.5625 54.757813 11.800781 56.160156 12.070313 57.566406 C 12.339844 58.972656 13.566406 59.992188 15 60 L 47 60 C 48.433594 59.992188 49.660156 58.972656 49.929688 57.566406 C 50.199219 56.160156 49.4375 54.757813 48.109375 54.21875 L 50.390625 36.921875 C 50.449219 36.769531 50.46875 36.609375 50.449219 36.449219 L 52.921875 18 L 53 18 C 54.65625 18 56 16.65625 56 15 L 56 9 C 56 7.34375 54.65625 6 53 6 Z M 24.589844 18 L 29.589844 23 L 24.808594 27.78125 C 24.523438 28.023438 24.398438 28.40625 24.488281 28.773438 C 24.574219 29.140625 24.859375 29.425781 25.226563 29.511719 C 25.59375 29.601563 25.976563 29.476563 26.21875 29.191406 L 31 24.410156 L 37.589844 31 L 31 37.589844 L 17.890625 24.480469 C 17.492188 24.140625 16.902344 24.164063 16.53125 24.53125 C 16.164063 24.902344 16.140625 25.492188 16.480469 25.890625 L 21.589844 31 L 13.871094 38.71875 L 12.328125 27.078125 L 21.410156 18 Z M 40.589844 18 L 43.921875 21.328125 C 44.316406 21.667969 44.90625 21.648438 45.277344 21.277344 C 45.648438 20.90625 45.667969 20.316406 45.328125 19.921875 L 43.410156 18 L 50.578125 18 L 39 29.589844 L 32.410156 23 L 37.410156 18 Z M 29.589844 39 L 23 45.589844 L 17.890625 40.480469 C 17.492188 40.140625 16.902344 40.164063 16.53125 40.53125 C 16.164063 40.902344 16.140625 41.492188 16.480469 41.890625 L 21.589844 47 L 15.730469 52.859375 L 14.199219 41.21875 L 23 32.421875 Z M 36.839844 43.421875 L 32.410156 39 L 39 32.410156 L 44.140625 37.550781 C 44.535156 37.890625 45.128906 37.867188 45.496094 37.496094 C 45.867188 37.128906 45.890625 36.535156 45.550781 36.140625 L 40.410156 31 L 47 24.410156 L 49.671875 27.078125 L 48.480469 36.078125 L 38.300781 46.28125 L 31 53.589844 L 24.410156 47 L 31 40.410156 L 35.421875 44.828125 C 35.816406 45.167969 36.40625 45.148438 36.777344 44.777344 C 37.148438 44.40625 37.167969 43.816406 36.828125 43.421875 Z M 23 48.410156 L 28.589844 54 L 17.410156 54 Z M 39 48.410156 L 44.589844 54 L 33.410156 54 Z M 40.410156 47 L 48 39.371094 L 46.269531 52.859375 Z M 50 24.578125 L 48.410156 23 L 50.46875 20.941406 Z M 31 21.578125 L 27.410156 18 L 34.578125 18 Z M 11.53125 20.941406 L 13.589844 23 L 12 24.578125 Z M 15 21.578125 L 11.410156 18 L 18.578125 18 Z M 47 58 L 15 58 C 14.449219 58 14 57.550781 14 57 C 14 56.449219 14.449219 56 15 56 L 47 56 C 47.550781 56 48 56.449219 48 57 C 48 57.550781 47.550781 58 47 58 Z M 54 15 C 54 15.550781 53.550781 16 53 16 L 9 16 C 8.449219 16 8 15.550781 8 15 L 8 9 C 8 8.449219 8.449219 8 9 8 L 53 8 C 53.550781 8 54 8.449219 54 9 Z " style="fill:#8D6C9F"/>
    </g>
</svg>
