<?xml version="1.0" standalone="no"?>
<!DOCTYPE svg PUBLIC "-//W3C//DTD SVG 20010904//EN"
 "http://www.w3.org/TR/2001/REC-SVG-20010904/DTD/svg10.dtd">
<svg version="1.0" xmlns="http://www.w3.org/2000/svg"
 width="700.000000pt" height="700.000000pt" viewBox="0 0 700.000000 700.000000"
 preserveAspectRatio="xMidYMid meet">
<metadata>
Created by potrace 1.11, written by Peter Selinger 2001-2013
</metadata>
<g transform="translate(0.000000,700.000000) scale(0.100000,-0.100000)"
fill="#000000" stroke="none">
<path d="M878 6325 c-59 -22 -125 -72 -158 -120 -59 -86 -60 -91 -60 -516 0
-373 1 -391 21 -446 40 -104 134 -181 249 -203 30 -6 54 -11 55 -13 1 -1 53
-380 114 -842 62 -462 182 -1351 267 -1975 141 -1035 153 -1136 138 -1145 -86
-52 -154 -131 -174 -203 -17 -61 -12 -156 11 -217 25 -68 99 -146 166 -178
l48 -22 1815 -3 c2004 -2 1873 -7 1962 61 83 63 131 160 130 263 -1 125 -60
222 -185 299 -15 9 -4 101 109 950 68 517 129 974 134 1015 18 151 260 1956
265 1977 4 16 15 24 43 28 119 20 209 82 260 179 l27 51 3 406 c3 393 2 408
-18 463 -26 68 -95 142 -165 176 l-50 25 -2485 2 c-2088 1 -2491 -1 -2522 -12z
m4951 -208 c19 -7 44 -25 55 -40 20 -28 21 -39 21 -386 0 -394 0 -397 -60
-426 -30 -13 -291 -15 -2457 -15 -1903 0 -2428 3 -2447 13 -13 6 -34 25 -45
40 -20 27 -21 42 -24 340 -2 172 0 336 3 365 8 63 36 100 85 112 19 4 1115 8
2435 8 1835 1 2408 -2 2434 -11z m-3997 -1279 l-192 -193 -192 193 -193 192
385 0 385 0 -193 -192z m1128 -83 l275 -275 -278 -278 c-161 -162 -277 -286
-278 -297 -4 -61 13 -101 53 -121 32 -17 71 -18 101 -3 12 6 142 131 290 277
l267 267 360 -360 360 -360 -357 -357 -357 -357 -734 727 -735 727 -44 0 c-38
0 -49 -5 -74 -33 -22 -25 -29 -42 -29 -74 0 -42 2 -44 292 -335 l293 -293
-420 -420 c-231 -231 -422 -416 -425 -412 -4 4 -43 288 -89 632 l-82 624 498
498 498 498 170 0 170 0 275 -275z m622 83 l-192 -193 -192 193 -193 192 385
0 385 0 -193 -192z m1018 26 c187 -188 230 -224 272 -224 61 0 112 50 110 109
-1 46 -17 69 -125 179 l-102 102 385 0 385 0 -630 -630 -630 -630 -357 357
-358 358 272 272 273 273 170 0 170 0 165 -166z m-3223 -266 c57 -57 103 -107
103 -113 0 -13 -158 -171 -164 -164 -3 2 -14 79 -26 169 -11 91 -22 175 -25
188 -3 12 -2 22 2 22 4 0 54 -46 110 -102z m4117 -75 c-13 -98 -23 -185 -24
-193 0 -8 -38 24 -85 70 l-85 85 107 107 c59 60 108 108 108 108 1 0 -9 -80
-21 -177z m-206 -346 l143 -143 -65 -487 -65 -487 -953 -960 -953 -959 -360
357 -361 357 358 360 357 359 249 -246 c136 -135 258 -249 271 -253 56 -17
133 25 143 79 12 59 -15 94 -261 340 l-241 241 358 358 357 357 275 -276 c151
-151 287 -282 302 -290 88 -47 191 34 163 128 -4 12 -136 152 -293 311 l-287
287 355 355 c195 195 357 355 360 355 3 0 69 -64 148 -143z m-2408 -1802
c-195 -195 -359 -355 -365 -355 -5 0 -139 129 -298 287 l-287 288 -46 0 c-39
0 -50 -5 -75 -33 -22 -25 -29 -42 -29 -74 0 -42 2 -44 292 -335 l293 -293
-320 -320 c-176 -176 -322 -315 -323 -310 -2 6 -41 291 -87 633 l-82 622 481
483 481 482 360 -360 360 -360 -355 -355z m2274 -414 c-51 -398 -95 -725 -96
-727 -2 -2 -145 138 -318 311 l-313 313 408 416 c225 229 410 415 411 413 1
-1 -40 -328 -92 -726z m-2331 -566 l299 -305 -609 0 -608 0 305 305 c168 168
307 305 310 305 3 0 139 -137 303 -305z m2034 -291 c-1 -1 -272 -4 -602 -8
l-600 -6 305 305 305 305 297 -297 c163 -163 296 -298 295 -299z m304 -234
c54 -15 84 -53 84 -107 0 -38 -5 -49 -33 -74 l-32 -29 -1788 0 c-1985 0 -1818
-6 -1848 66 -26 61 6 124 72 144 42 12 3500 12 3545 0z"/>
<path d="M1171 5896 c-66 -22 -76 -49 -76 -209 0 -120 3 -146 18 -168 40 -59
125 -63 171 -8 25 30 26 35 26 170 0 151 -9 185 -52 206 -40 20 -52 21 -87 9z"/>
<path d="M1730 5903 c-76 -24 -90 -56 -90 -212 0 -83 5 -133 14 -156 15 -35
59 -65 96 -65 37 0 81 30 96 65 20 49 19 266 -1 310 -20 41 -77 71 -115 58z"/>
<path d="M2280 5903 c-79 -22 -90 -49 -90 -222 0 -135 1 -140 26 -170 46 -55
132 -51 171 8 13 19 18 52 21 129 5 127 -3 185 -31 217 -23 26 -71 45 -97 38z"/>
<path d="M2810 5896 c-65 -21 -75 -50 -75 -205 0 -154 7 -178 60 -206 44 -24
96 -14 129 26 25 30 26 34 26 179 l0 148 -30 30 c-34 35 -66 43 -110 28z"/>
<path d="M3369 5902 c-15 -2 -39 -17 -55 -33 -28 -30 -29 -33 -33 -156 -4
-151 6 -196 52 -223 39 -24 68 -25 107 -5 50 26 60 59 60 200 0 94 -4 136 -15
160 -21 43 -64 64 -116 57z"/>
<path d="M3915 5902 c-33 -7 -62 -32 -75 -61 -8 -19 -10 -77 -8 -169 3 -132 4
-142 27 -166 46 -49 130 -43 168 13 14 20 18 52 21 145 4 127 -5 181 -37 210
-22 20 -69 34 -96 28z"/>
<path d="M4453 5898 c-17 -4 -41 -20 -52 -34 -19 -24 -21 -40 -21 -179 0 -151
0 -153 26 -178 14 -15 35 -29 46 -33 36 -11 86 5 112 37 25 30 26 34 26 177 0
137 -2 149 -23 175 -27 33 -71 47 -114 35z"/>
<path d="M5004 5899 c-16 -5 -41 -20 -55 -35 -22 -24 -24 -34 -28 -151 -4
-151 6 -196 52 -223 39 -24 68 -25 107 -5 50 26 60 59 60 200 0 162 -14 196
-90 218 -8 2 -29 0 -46 -4z"/>
<path d="M5555 5902 c-33 -7 -62 -32 -75 -61 -8 -19 -10 -77 -8 -169 3 -132 4
-142 27 -166 46 -49 130 -43 168 13 14 20 18 52 21 145 4 127 -5 181 -37 210
-22 20 -69 34 -96 28z"/>
</g>
</svg>
